<svg xmlns="http://www.w3.org/2000/svg" enable-background="new 0 0 3000 3000" viewBox="0 0 3000 3000" id="new-year-celebration-trumpet">
  <path fill="#DFE4EF" d="M553.116 2638.806c554.822 92.831 1888.158 34.179 1985.428-29.754 97.27-63.932-1436.625-46.246-1671.209-45.22C632.751 2564.859 287.279 2594.328 553.116 2638.806zM1950.337 321.314c21.441 24.452 44.168 46.762 67.712 67.017l40.31 32.275c14.247 10.606 28.656 20.56 43.129 29.889l-.003-.287 36.292 22.388c43.409 24.928 86.527 44.603 126.431 60.035 94.801 36.666 183.595 54.656 242.406 63.365l6.549 6.306c-12.364-1.742-26.046-3.865-41.201-6.577-18.394-3.293-38.652-7.378-60.263-12.41 0 0-49.491 90.071-69.089 85.062-20.604-5.261-34.206-114.198-34.206-114.198-3.091-1.03-68.716 78.105-87.58 71.853-27.515-9.115-19.231-114.333-19.231-114.333-2.873-1.342-77.611 69.411-98.065 59.03-25.378-12.879-1.933-113.829-1.933-113.829-5.962-3.812-89.836 53.597-111.991 38.697-18.769-12.625 9.537-89.98 9.537-89.98l-.004-.002 2.606-24.556c-19.067-17.216-37.519-35.843-55.12-55.886L1950.337 321.314z"></path>
  <g>
    <path fill="#DFE4EF" d="M1693.959,373.151H696.315c-43.48,0-78.729,35.251-78.729,78.739v1167.086
		c0,43.48,35.249,78.731,78.729,78.731h997.644c43.488,0,78.739-35.251,78.739-78.731V451.889
		C1772.698,408.401,1737.447,373.151,1693.959,373.151z"></path>
    <path fill="#B9C1E1" d="M1772.773,688.008v284.395c-260.302,61.249-866.564,203.133-1155.205,266.28V950.508
		L1772.773,688.008z" opacity=".2"></path>
    <polygon fill="#B9C1E1" points="617.568 1316.473 1772.773 1079.007 1772.773 1163.249 617.568 1452.997" opacity=".2"></polygon>
    <path fill="#B9C1E1" d="M1693.959,337.719H696.315c-43.48,0-78.729,35.259-78.729,78.739v188.52h1155.113v-188.52
		C1772.698,372.978,1737.447,337.719,1693.959,337.719z"></path>
    <g>
      <path fill="#929ED3" d="M809.213,343.96c0,17.129-10.503,31.012-23.468,31.012c-12.958,0-23.461-13.883-23.461-31.012
			c0-17.121,10.503-31.005,23.461-31.005C798.71,312.956,809.213,326.839,809.213,343.96z"></path>
    </g>
    <g>
      <path fill="#929ED3" d="M1598.137,343.96c0,17.129-10.503,31.012-23.459,31.012c-12.959,0-23.462-13.883-23.462-31.012
			c0-17.121,10.504-31.005,23.462-31.005C1587.634,312.956,1598.137,326.839,1598.137,343.96z"></path>
    </g>
    <g>
      <path fill="#B9C1E1" d="M1305.001,778.108l-23.34,703.868l-175.465-8.049l9.661-512.299l-64.39,44.278l-60.367-137.654
			l131.199-98.187L1305.001,778.108z"></path>
    </g>
    <g>
      <path fill="#DFE4EF" d="M933.217 463.575c0 2.808 0 5.594 0 8.357 0 2.755-.151 5.549-.429 8.35-.535 5.948-1.815 11.58-3.863 16.895-2.046 5.308-4.818 9.961-8.319 13.959-3.501 3.998-7.747 7.16-12.747 9.494-4.991 2.334-10.729 3.501-17.204 3.501-2.523 0-5.157-.218-7.891-.64-2.74-.429-5.451-1.077-8.137-1.935-2.69-.859-5.265-1.913-7.719-3.177-2.445-1.265-4.629-2.726-6.535-4.39l4.435-29.559c2.801 2.71 5.926 4.909 9.352 6.603 3.426 1.686 7.169 2.537 11.211 2.537 2.62 0 4.826-.384 6.641-1.144 1.807-.761 3.305-1.807 4.495-3.147 1.198-1.333 2.131-2.884 2.824-4.676.685-1.785 1.182-3.689 1.5-5.715.314-2.017.495-4.103.57-6.241.075-2.146.107-4.262.107-6.355 0-7.574-.385-15.103-1.146-22.602-.761-7.499-1.423-15.013-1.995-22.534l32.706-2.131C932.501 433.873 933.217 448.727 933.217 463.575zM1033.918 516.278l-35.417 4.563-4.292-16.135h-16.278l-3.561 16.135-36.424-3.562 28.42-95.122 39.701-1.995L1033.918 516.278zM991.649 482.856l-5.436-24.846-5.277 24.846H991.649zM1139.844 420.019l-5.142 96.831-37.419 3.418-19.99-51.829-3.145 52.831h-32.128l2.56-101.251 35.71-1.709 24.703 51.401 1.144-48.555L1139.844 420.019zM1238.339 443.013c0 3.516-.174 7.401-.497 11.64-.331 4.231-.888 8.614-1.649 13.138-.76 4.525-1.747 9.103-2.966 13.741-1.204 4.645-2.725 9.102-4.525 13.394-1.814 4.276-3.915 8.29-6.317 12.031-2.416 3.735-5.172 7.002-8.289 9.788-3.125 2.778-6.603 4.962-10.466 6.566-3.848 1.588-8.139 2.394-12.845 2.394-5.518 0-10.322-.896-14.394-2.68-4.065-1.785-7.561-4.194-10.459-7.214-2.906-3.026-5.286-6.55-7.138-10.563-1.86-4.02-3.305-8.282-4.359-12.792-1.047-4.488-1.769-9.088-2.176-13.779-.407-4.683-.61-9.193-.61-13.53 0-6.663.338-13.319 1.001-19.959.663-6.633 1.619-13.267 2.853-19.884l33.421 1.287c-1.287 7.469-2.394 14.983-3.32 22.52-.932 7.552-1.401 15.133-1.401 22.745 0 .814.038 2.011.113 3.614.068 1.589.205 3.373.391 5.346.196 1.98.467 4.005.821 6.076.362 2.063.851 3.96 1.468 5.677.617 1.716 1.364 3.116 2.251 4.216.874 1.091 1.913 1.634 3.109 1.634 1.37 0 2.613-.655 3.704-1.958 1.1-1.31 2.063-3.064 2.891-5.255.836-2.184 1.559-4.705 2.183-7.567.617-2.853 1.145-5.835 1.574-8.922.429-3.094.768-6.189 1.024-9.283.271-3.094.482-5.978.648-8.636.167-2.673.278-5.022.318-7.077.059-2.048.075-3.568.075-4.563 0-3.719-.054-7.416-.182-11.105-.113-3.689-.294-7.364-.535-11.038h33.421C1238.055 429.581 1238.339 436.259 1238.339 443.013zM1336.548 516.278l-35.417 4.563-4.284-16.135h-16.278l-3.568 16.135-36.418-3.562 28.416-95.122 39.707-1.995L1336.548 516.278zM1294.279 482.856l-5.428-24.846-5.278 24.846H1294.279zM1429.049 453.583c0 3.712-.323 7.085-.962 10.097-.649 3.019-1.656 5.804-3.043 8.319-1.37 2.53-3.162 4.864-5.345 6.994-2.191 2.146-4.834 4.194-7.928 6.152l16.994 30.274-32.135 6.279-10.993-30.417-8.862.286-1.28 29.703h-30.703c.234-10.849.466-21.654.677-32.42.218-10.759.467-21.556.753-32.413.09-5.474.188-10.895.286-16.285.09-5.376.279-10.797.566-16.278 3.327-1.235 6.617-2.259 9.854-3.072 3.238-.805 6.484-1.438 9.743-1.882 3.26-.459 6.573-.768 9.923-.934 3.365-.165 6.799-.248 10.322-.248 5.428 0 10.678.753 15.75 2.243 5.067 1.499 9.547 3.75 13.455 6.754 3.909 2.989 7.039 6.738 9.389 11.211C1427.868 442.418 1429.049 447.628 1429.049 453.583zM1397.058 455.864c0-2.002-.271-3.832-.819-5.503-.551-1.656-1.355-3.094-2.426-4.314-1.069-1.213-2.402-2.168-4.005-2.854-1.589-.692-3.464-1.039-5.602-1.039-.956 0-1.882.061-2.786.181-.903.12-1.785.301-2.642.534l-1.145 26.555h1.716c2.048 0 4.126-.256 6.249-.783 2.124-.52 4.021-1.333 5.715-2.417 1.688-1.099 3.072-2.507 4.141-4.216C1396.517 460.291 1397.058 458.244 1397.058 455.864zM1529.901 425.733l-39.271 54.834-1.858 44.708h-33.844l.858-44.422-20.419-52.974 36.41-4.578 5.722 30.846 18.137-30.846L1529.901 425.733z"></path>
    </g>
  </g>
  <g>
    <g>
      <g>
        <g>
          <path fill="#FAB19E" d="M2180.826,2424.639c0.138,5.431,7.923,87.936,8.316,110.939c-8.508,11.088-59.11,10.319-64.2-1.326
					c-5.091-11.645-20.969-105.457-20.969-105.457L2180.826,2424.639z"></path>
          <path fill="#E06020" d="M2199.032,2613.141c-7.284,3.457-165.834,4.252-181.431,4.646
					c-15.596,0.388-11.018-55.865,37.121-58.216l55.775-47.343c2.233-11.333-13.471-19.434-10.54-24.572
					c5.31-9.192,28.775-10.862,44.094-1.135c7.114,4.544,12.244,11.12,13.415,20.911c15.376-0.056,43.904,0.207,45.113,8.675
					C2204.258,2527.822,2206.357,2609.678,2199.032,2613.141z"></path>
          <path fill="#C6501C" d="M2017.606,2617.795c15.626-0.43,174.145-1.223,181.44-4.623c3.354-1.658,4.798-20.098,5.11-40.653
					c-23.576,9.636-69.24,25.365-106.657,20.798c0,0-49.719-18.934-83.122-8.581
					C2006.439,2600.622,2008.873,2617.983,2017.606,2617.795z"></path>
          <path fill="#28264A" d="M2102.385,2583.671c-1.384-5.442-25.441-28.651-49.848-23.645c0,0,10.573-16.43,34.382-3.963
					C2104.491,2565.268,2102.385,2583.671,2102.385,2583.671z"></path>
          <g>
            <path fill="#28264A" d="M2121.293 2549.699c-6.941-3.682-41.482-4.989-33.938-9.84 7.545-4.85 33.41-.031 35.481 5.938C2124.906 2551.77 2121.293 2549.699 2121.293 2549.699zM2131.666 2537.68c-6.939-3.684-41.479-4.992-33.935-9.84 7.542-4.849 33.41-.034 35.479 5.94C2135.278 2539.751 2131.666 2537.68 2131.666 2537.68zM2142.039 2525.662c-6.941-3.683-41.479-4.993-33.936-9.839 7.544-4.85 33.41-.035 35.482 5.939C2145.651 2527.733 2142.039 2525.662 2142.039 2525.662z"></path>
          </g>
          <path fill="#28264A" d="M2202.855,2598.799c-0.006-0.118-69.844,5.011-108.948,5.8c-4.367,0.085-8.189-11.018-47.342-10.567
					c-27.114-0.083-36.071,8.733-36.998,9.711c-1.734,1.82-4.723,18.773,2.975,19.93c7.698,1.157,183.76-1.689,186.657-4.773
					C2204.931,2612.798,2202.855,2598.799,2202.855,2598.799z"></path>
        </g>
        <g>
          <g>
            <path fill="#FAB19E" d="M1698.101,2358.839c-1.415,4.697-33.829,76.529-39.979,96.372c-9.954,7.253-61.45-12.741-62.27-24.091
						c-0.818-11.347,28.845-96.12,28.845-96.12L1698.101,2358.839z"></path>
            <path fill="#E06020" d="M1646.832,2537.735c-7.852,1.673-161.625-34.039-176.823-37.249
						c-15.197-3.209,2.184-56.652,49.352-47.852l64.925-33.027c4.771-10.464-1.935-20.404,2.086-24.706
						c7.261-7.683,37.409-3.732,50.017,9.216c5.844,6.038,2.329,17.512,1.211,27.264c14.911,3.487,35.774,4.69,34.998,13.172
						C1671.527,2456.287,1654.726,2536.068,1646.832,2537.735z"></path>
            <path fill="#C6501C" d="M1469.98,2500.451c15.245,3.212,168.98,38.949,176.857,37.31c3.162-0.627,7.771-13.926,12.193-30.302
						c-29.454-0.321-90.373-1.978-106.68-10.635c-20.407-10.766-55.469-31.522-86.079-14.555
						C1463.264,2491.381,1464.387,2499.316,1469.98,2500.451z"></path>
            <path fill="#28264A" d="M1559.99,2486.95c-0.088-5.591-18.054-33.611-42.847-34.377c0,0,14.022-13.482,34.214,4.076
						C1566.266,2469.608,1559.99,2486.95,1559.99,2486.95z"></path>
            <g>
              <path fill="#28264A" d="M1586.124 2458.389c-5.877-5.164-39.034-14.377-30.609-17.34 8.422-2.958 32.372 7.657 33.002 13.918C1589.146 2461.228 1586.124 2458.389 1586.124 2458.389zM1598.938 2449.135c-5.875-5.165-39.036-14.38-30.611-17.34 8.425-2.963 32.375 7.654 33.005 13.914C1601.962 2451.973 1598.938 2449.135 1598.938 2449.135zM1611.754 2439.877c-5.875-5.164-39.037-14.377-30.613-17.34 8.426-2.96 32.372 7.656 33.007 13.917C1614.777 2442.716 1611.754 2439.877 1611.754 2439.877z"></path>
            </g>
            <path fill="#28264A" d="M1653.837,2524.722c0.023-0.116-68.811-11.216-106.873-19.452c-4.251-0.918-5.399-12.56-43.431-21.129
						c-26.248-6.319-36.953,0.16-38.074,0.893c-2.099,1.367-8.898,17.104-1.703,19.994c7.189,2.891,178.398,40.647,181.913,38.327
						C1652.625,2538.759,1653.837,2524.722,1653.837,2524.722z"></path>
          </g>
          <path fill="#3A3A60" d="M1858.827,1283.21c0,0-244.953,1040.202-257.41,1077.107c-3.073,19.644,90.869,43.911,99.516,25.884
					c9.85-20.533,419.853-1051.582,419.853-1051.582L1858.827,1283.21z"></path>
          <path fill="#313055" d="M1794.762,1814.743c3.738,18.113,56.596,30.233,54.671,56.911
					c-1.624,23.214-151.357,520.518-148.505,514.517c9.879-20.499,419.88-1051.572,419.88-1051.572l-261.959-51.425
					c0,0-10.925,42.284-28.444,110.096c26.422,6.63,76.874,19.923,81.514,26.576c6.316,9.007,23.626,300.939,23.626,300.939
					s-50.861,67.73-55.949,64.098c-5.16-3.648-36.244-27.951-41.867-9.517c-5.605,18.359,43.341,27.11,30.505,36.498
					C1855.4,1821.249,1791.102,1796.646,1794.762,1814.743z"></path>
        </g>
        <path fill="#3A3A60" d="M1922.202,1320.24c0,0,17.632,145.582,56.148,223.844c43.275,274.84,93.241,712.765,118.823,915.297
				c48.45,19.229,80.751,17.395,107.032,0.352c-4.971-207.201,19.813-882.82,24.557-1053.262
				c0.699-25.095,7.284-52.015-2.392-74.007L1922.202,1320.24z"></path>
        <path fill="#313055" d="M1922.181,1320.22c0,0,17.613,145.635,56.153,223.859c43.274,274.834,93.277,712.749,118.846,915.261
				c11.702,4.605,22.782,8.186,33.332,10.588c-37.099-143.921-67.573-561.008-66.706-573.962
				c0.988-15.035,40.511-20.825,63.142-34.946c22.624-14.044-36.8-7.229-58.098-16.557c-21.303-9.329,9.228-15.354,30.533-24.135
				c21.38-8.769-28.907-6.45-37.467-21.777c-8.643-15.334-41.637-322.801-28.542-323.372
				c10.741-0.398,116.707,40.241,192.819,24.914c0.716-26.81-1.355-50.647,1.899-69.937c16.577-98.307-7.959-104.403-7.959-104.403
				L1922.181,1320.22z"></path>
        <path fill="#28264A" d="M1912.431,1368.084c0,0,41.276,171.176,54.745,180.941l40.051,193.518l-19.925-204.83
				c0,0-35.794-165.118-40.314-166.245C1942.468,1370.338,1912.431,1368.084,1912.431,1368.084z"></path>
      </g>
      <g>
        <path fill="#FAB19E" d="M1984.649,732.699c0,0-31.758,13.14-42.778,7.662c-11.02-5.478-49.122-35.04-49.607-29.591
				c-0.487,5.45-12.757,58.92-12.757,58.92l-13.486,37.023l52.359,27.372l19.571-45.767c0,0,51.35-38.283,52.814-42.886
				C1992.229,740.829,1984.649,732.699,1984.649,732.699z"></path>
        <path fill="#E06020" d="M2014.237,866.306c0,0-31.15,7.437-44.59,15.904c-4.76,2.999-211.589,192.808-216.967,190.6
				c-5.379-2.209-71.597,98.045-9.697,132.686c61.9,34.641,218.73-85.458,218.73-85.458S2100.581,919.762,2014.237,866.306z"></path>
        <path fill="#D3581E" d="M2023.953,1004.388c-23.86,60.296-62.231,115.627-62.231,115.627s-82.416,63.134-151.354,84.673
				c26.569-43.594,125.816-198.559,193.207-205.266C2012.087,998.584,2018.794,1000.39,2023.953,1004.388z"></path>
      </g>
      <path fill="#E06020" d="M1818.779,1372.264c0,0,287.651,67.881,321.811,71.589c34.16,3.709,113.176-41.088,113.176-41.088
			s-63.584-510.077-86.935-519.82c-23.35-9.743-110.87-30.978-156.612-15.401C1964.477,883.123,1818.779,1372.264,1818.779,1372.264
			z"></path>
      <path fill="#D3581E" d="M2253.789,1402.796c0,0-79.063,44.755-113.177,41.079c-34.178-3.741-321.861-71.583-321.861-71.583
			s44.046-147.871,91.38-283.619c-17.347,88.22-39.208,213.134-28.955,234.673c16.186,33.856,162.833,64.81,173.666,59.974
			c10.834-4.837-25.859-77.385-8.512-59.007c17.412,18.38,31.276,23.603,35.469,23.41c4.191-0.194,104.148-137.554,104.471-150.129
			c0.258-9.609,10.511-115.37,15.348-164.187C2226.898,1186.954,2253.789,1402.796,2253.789,1402.796z"></path>
      <path fill="#D3581E" d="M1992.072,973.902c42.431,23.119,134.686-6.925,136.074,20.348s2.372,141.699-32.883,101.842
			c-35.254-39.856-48.09-68.171-65.458-48.214c-17.369,19.958-81.273-4.553-65.656-32.291
			C1979.766,987.85,1974.89,964.539,1992.072,973.902z"></path>
      <path fill="#C6501C" d="M1942.51,999.407c1.388-0.652-51.095,177.315-57.567,172.212
			C1878.471,1166.517,1930.836,1004.898,1942.51,999.407z"></path>
      <g>
        <g>
          <path fill="#E06020" d="M2228.814,563.481c-31.861-36.497-148.755,37.615-148.755,37.615s71.189,93.94,113.933,108.083
					C2193.992,709.179,2260.676,599.979,2228.814,563.481z"></path>
          <path fill="#C6501C" d="M2193.967,709.193c-42.726-14.172-113.881-108.098-113.881-108.098s2.774-1.74,7.575-4.616
					c43.379,20.618,88.644,74.268,105.575,63.149c15.408-10.15,29.02-70.742,34.328-97.432c0.425,0.363,0.832,0.843,1.248,1.265
					C2260.657,599.957,2193.967,709.193,2193.967,709.193z"></path>
          <path fill="#FFD600" d="M2193.992,709.179c-5.303,5.591-35.108-14.071-66.57-43.917c-31.462-29.846-52.667-58.574-47.363-64.165
					c5.304-5.591,35.108,14.071,66.57,43.918C2178.092,674.86,2199.297,703.587,2193.992,709.179z"></path>
          <polygon fill="#FFD600" points="2186.771 735.254 2193.992 709.179 2080.059 601.096 2054.478 609.755"></polygon>
          <path fill="#C6501C" d="M2198.589,752.007c-7.521,7.927-49.779-19.952-94.387-62.269
					c-44.608-42.317-74.674-83.048-67.154-90.976c7.521-7.927,49.779,19.952,94.387,62.269
					C2176.043,703.348,2206.109,744.079,2198.589,752.007z"></path>
          <path fill="#28264A" d="M2185.587,742.688c-5.327,5.615-40.66-19.256-78.919-55.55c-38.259-36.294-64.956-70.268-59.629-75.883
					c5.326-5.615,40.66,19.256,78.918,55.55C2164.216,703.099,2190.913,737.073,2185.587,742.688z"></path>
        </g>
        <path fill="#FAB19E" d="M2129.303,770.79l-10.283,83.094c0,0-9.305,29.202-50.94,29.205
				c-13.219,0.001-18.106-10.263-18.621-24.272c7.422-26.203,16.329-52.271,16.329-52.271L2129.303,770.79z"></path>
        <path fill="#DB8F82" d="M2111.814,808.086c-12.999,33.333-44.737,33.851-56.983,32.727c5.738-18.941,10.938-34.27,10.938-34.27
				l50.098-28.178C2117.299,786.122,2116.632,795.843,2111.814,808.086z"></path>
        <path fill="#FAB19E" d="M2053.277,648.713c0,0-40.571,67.47-39.293,106.8c0.518,15.915,8.268,60.3,41.466,62.323
				c33.198,2.022,104.348-70.152,92.982-105.761C2137.076,676.466,2053.277,648.713,2053.277,648.713z"></path>
        <path fill="#28264A" d="M2172.236,721.029c0,0-78.042-87.47-116.773-105.295c-38.732-17.825-40.591,8.109-8.396,51.701
				c14.633,19.814,46.029,30.415,75.934,36.104c7.036,20.514-16.156,65.053-34.529,80.468
				c-18.373,15.415-22.542-15.124-37.651-25.301c-15.107-10.178-37.768-5.135-37.768-5.135s-9.405,48.148,20.373,60.084
				c24.503,9.821,74.381,0.772,88.951-5.744c-0.058,1.931,17.397,6.939,18.581-13.768
				C2161.406,801.278,2172.708,753.057,2172.236,721.029z"></path>
        <path fill="#C6501C" d="M2053.044,846.521c0,0-19.645,11.654-23.143,17.319c-3.498,5.664,9.496,27.87,22.63,35.299
				c35.042,19.825,83.849-13.978,83.175-24.243c-0.675-10.266-15.96-27.604-15.96-27.604s-15.54,35.998-50.477,25.624
				C2048.283,866.684,2053.044,846.521,2053.044,846.521z"></path>
        <g>
          <path fill="#FAB19E" d="M2127.478,757.643c0,0,2.104-31.591,12.012-39.906c7.296-6.125,17.984-4.599,22.219-1.436
					c15.082,11.264,0.317,42.498-20.495,47.164C2136.696,764.478,2129.923,762.486,2127.478,757.643z"></path>
          <path fill="#28264A" d="M2158.416,730.629c-45.558,4.911,14.365,25.603-9.334,6.768
					C2149.082,737.396,2165.022,732.074,2158.416,730.629z"></path>
        </g>
        <path fill="#28264A" d="M2073.208 692.844c2.159-3.854 16.124 1.526 25.951 14.889C2108.983 721.101 2068.267 701.683 2073.208 692.844zM2046.504 679.882c-.875-3.647-12.007-3.362-21.569 4.384C2015.375 692.015 2048.504 688.243 2046.504 679.882zM2081.246 714.831c-3.124-5.124-25.675 2.244-12.368 5.534 14.748-6.926 9.281 9.656 16.74 8.083C2088.796 725.906 2087.478 720.2 2081.246 714.831zM2036.766 698.736c-3.124-5.124-25.675 2.245-12.368 5.534 14.747-6.927 9.281 9.655 16.74 8.084C2044.317 709.81 2042.999 704.104 2036.766 698.736zM2050.857 719.731c-7.79 11.394-11.465 16.884-10.719 20.745 1.885 9.75 22.298 1.818 4.663-1.323C2044.802 739.153 2052.629 719.834 2050.857 719.731z"></path>
        <path fill="#DFE4EF" d="M2028.207,767.795c10.247,11.698,19.141,3.879,19.622,8.831c0.479,4.951-7.273,11.924-17.257,7.992
				C2019.29,780.173,2019.702,758.085,2028.207,767.795z"></path>
      </g>
      <g>
        <g>
          <g>
            <path fill="#FAB19E" d="M2088.546,1538.956c-10.389-2.731-8.967-7.837-8.967-7.837s-8.65,4.62-13.949-0.508
						c-5.299-5.13-1.277-12.432-1.277-12.432s-8.244,5.452-14.28-0.36c-6.037-5.812-2.223-14.904-2.223-14.904
						s-9.793,3.271-12.422-9.433c-1.829-8.838,14.731-26.439,19.281-30.725c-5.629,0.277-15.238,0.101-20.748-3.019
						c-6.524-3.695-10.371-9.359-7.526-11.135c4.942-3.083,43.456-8.033,62.469-16.399c7.855-9.213,19.153-21.449,19.153-21.449
						l48.982,45.304c0,0-6.967,6.977-20.294,21.943c-6.24,9.844-25.484,42.681-25.484,42.681S2097.002,1541.178,2088.546,1538.956z"></path>
          </g>
          <g>
            <path fill="#DB8F82" d="M2064.361 1452.319c-.445-.412-5.486 4.313-11.258 10.554-5.772 6.24-10.089 11.634-9.643 12.046.446.413 5.487-4.312 11.259-10.552C2060.49 1458.125 2064.808 1452.732 2064.361 1452.319zM2052.406 1497.989c-.447-.413-2.057.604-3.599 2.27-1.541 1.666-2.429 3.352-1.983 3.764.446.414 2.057-.604 3.598-2.27C2051.963 1500.087 2052.852 1498.402 2052.406 1497.989zM2069.82 1512.268c-.447-.413-2.261.824-4.054 2.763-1.793 1.938-2.885 3.844-2.438 4.257.446.413 2.261-.825 4.054-2.763C2069.175 1514.586 2070.266 1512.68 2069.82 1512.268zM2084.307 1524.524c-.49-.36-2.073.963-3.535 2.954-1.463 1.991-2.253 3.897-1.762 4.257.489.36 2.073-.963 3.535-2.954C2084.007 1526.789 2084.796 1524.883 2084.307 1524.524z"></path>
          </g>
        </g>
        <path fill="#E06020" d="M2225.896,1189.302c0,0-60.333-200.649-66.386-233.802c-6.052-33.153-0.729-74.946-0.729-74.946
				s34.999,10.23,36.562,16.595c1.565,6.366,163.884,261.598,160.477,316.398c-3.408,54.8-211.444,266.073-211.444,266.073
				l-61.192-49.943L2225.896,1189.302z"></path>
        <path fill="#C6501C" d="M2182.299,1040.985l38.81,146.541c0,0-148.896,240.403-136.656,232.641
				c12.239-7.763,145.354-221.278,145.354-221.278s56.817,4.599,63.348-5.443c6.532-10.042-57.845-12.222-57.845-12.222
				S2187.491,1034.646,2182.299,1040.985z"></path>
      </g>
    </g>
    <g>
      <g>
        <path fill="#C6B352" d="M1993.747,759.162c3.533-7.803,8.807-12.632,11.628-10.888l33.23,20.541
				c1.143,0.707,0.337,5.042-1.764,9.71c-2.102,4.669-4.816,8.153-6.105,7.767l-37.482-11.219
				C1990.071,774.121,1990.213,766.97,1993.747,759.162z"></path>
        <path fill="#EADA7F" d="M1913.406,722.136c7.971-17.607,19.875-28.507,26.242-24.571l74.991,46.357
				c2.58,1.596,0.761,11.38-3.98,21.912c-4.743,10.537-10.869,18.4-13.777,17.53l-84.589-25.318
				C1905.109,755.895,1905.43,739.759,1913.406,722.136z"></path>
        <path fill="#D8C669" d="M1912.28,758.014l84.583,25.337c1.52,0.504,4.091-1.605,6.737-5.236
				c-6.214-3.823-15.589-10.936-17.571-18.884c-2.079-8.25-0.365-22.349,1.395-32.178l-47.761-29.451
				c-6.285-3.947-18.297,6.847-26.338,24.493C1905.408,739.656,1905.049,755.939,1912.28,758.014z"></path>
      </g>
      <g>
        <path fill="#D8C669" d="M1730.625 585.592c-1.791-.854-1.95-55.326-10.815-66.157-8.964-10.953-2.998 28.881-7.894 24.139-4.924-4.768-15.836-20.941-22.848-17.679-7.044 3.276 24.224 64.279 28.764 66.742C1722.349 595.089 1730.625 585.592 1730.625 585.592zM1688.868 679.151c-1.828-.771-42.437 35.391-56.396 35.971-14.115.588 19.478-21.479 12.692-21.985-6.825-.508-26.119 2.098-28.364-5.321-2.255-7.453 63.931-24.687 68.785-22.93C1690.417 666.634 1688.868 679.151 1688.868 679.151zM1642.758 658.861c-2.818-.936-78.312-26.972-62.727-30.871 15.42-3.857 40.514-3.403 49.348-4.553 8.777-1.142-23.752-52.027-8.255-50.728 15.305 1.282 46.848 20.149 46.569 12.039-.279-8.135-28.647-56.259-15.566-57.991 12.957-1.716 46.51 29.328 47.677 42.52C1700.966 582.395 1664.284 666.008 1642.758 658.861z"></path>
        <g>
          <g>
            <path fill="#EADA7F" d="M1664.375,557.38c-5.802,8.667-22.031-61.406-52.164-49.718c-21.302,8.263,45.286,60.055,44.807,96.042
						c-0.247,18.602-31.671-14.346-59.485-17.018c-30.66-2.944,49.133,62.272,41.717,59.821
						c-41.387-13.688-98.394,21.49-90.499,35.289c7.559,13.211,64.981-12.4,66.473-9.316c1.476,3.051-51.039,55.45-21.132,39.495
						c27.7-14.778,117.089-32.951,117.089-32.951c28.731-1.071,43.83-27.01,41.147-50.542
						c-2.851-24.994-63.323-84.447-79.242-129.093C1654.953,448.543,1670.137,548.77,1664.375,557.38z"></path>
            <path fill="#D8C669" d="M1710.256,561.199c20.174,27.559,40.522,52.849,42.12,67.242c2.68,23.569-12.525,49.474-41.274,50.598
						c0,0-23.803,4.877-50.84,11.601C1645.965,631.993,1710.256,561.199,1710.256,561.199z"></path>
            <path fill="#E06020" d="M1690.539,622.688c16.701-38.044,38.103-64.035,47.451-58.232l220.241,136.641
						c0.013,0.008,0.036-0.013,0.05-0.005c2.604,1.616-2.253,18.562-10.76,37.784l-0.581,1.309
						c-4.993,11.109-10.165,20.643-14.119,26.281c-2.655,3.823-4.783,5.918-5.93,5.594l-0.014,0.034l-247.249-74.779
						C1669.147,694.147,1673.854,660.698,1690.539,622.688z"></path>
            <path fill="#D3581E" d="M1679.673,697.26l247.194,74.882l0.068-0.107c1.068,0.397,3.22-1.69,5.914-5.609
						c3.928-5.651,9.104-15.096,14.053-26.211l0.621-1.302c8.494-19.273,13.383-36.248,10.761-37.778
						c-0.03-0.067-0.03-0.067-0.03-0.067l-1.206-0.743c-7.123,20.109-16.64,42.647-25.094,47.413
						c-14.323,8.159-173.281-49.902-255.992-80.575C1672.52,684.032,1673.686,695.438,1679.673,697.26z"></path>
            <g>
              <polygon fill="#FFD600" points="1774.286 609.058 1788.647 622.103 1790.281 597.466 1790.67 597.077 1751.804 572.956 1750.749 572.992 1762.492 594.025 1754.536 619.513"></polygon>
              <path fill="#E4C012" d="M1929.597,769.544l3.225-3.078c3.954-5.638,9.126-15.172,14.12-26.281l0.089-10.033l-6.866,13.214
							l-0.727,0.308l-7.208,3.323l-0.514,0.239l0.215,0.528l2.519,7.18l0.278,0.706L1929.597,769.544z"></path>
              <polygon fill="#E4C012" points="1857.707 686.851 1863.581 699.343 1857.244 717.705 1869.914 707.992 1878.085 715.024 1880.422 697.855 1891.405 684.867 1880.993 682.9 1879.854 666.486 1870.596 683.448"></polygon>
              <polygon fill="#FFD600" points="1781.16 727.983 1801.677 734.19 1801.932 733.419 1817.37 722.857 1805.877 715.313 1808.176 694.776 1793.784 710.668 1777.945 708.261 1781.913 726.685"></polygon>
              <polygon fill="#FFD600" points="1927.437 716.503 1932.898 701.155 1942.258 693.856 1937.303 688.074 1929.001 682.922 1922.553 680.966 1922.883 695.094 1914.714 709.648 1924.427 706.051"></polygon>
              <polygon fill="#E4C012" points="1746.531 670.317 1755.639 677.934 1753.625 692.593 1764.348 682.724 1774.666 685.954 1772.857 672.893 1781.277 660.718 1769.732 661.846 1764.447 650.16 1758.985 664.779"></polygon>
              <polygon fill="#FFD600" points="1845.358 663.627 1853.581 655.409 1860.752 658.715 1860.249 647.294 1863.508 642.278 1852.529 635.465 1850.952 639.582 1841.865 643.96 1847.76 650.931"></polygon>
              <polygon fill="#FFD600" points="1881.171 741.4 1885.407 745.607 1883.219 755.516 1889.7 748.022 1895.038 749.28 1895.025 740.704 1900.497 731.8 1894.154 733.662 1892.183 726.477 1888.179 736.614"></polygon>
            </g>
          </g>
        </g>
      </g>
      <g>
        <path fill="#FAB19E" d="M1944.849,784.342c0,0,34.108-29.576,35.559-34.194c1.451-4.619-10.528-3.71-10.528-3.71l-19.176,9.289
				c0,0-25.572,1.384-32.027,12.037S1944.849,784.342,1944.849,784.342z"></path>
        <path fill="#DB8F82" d="M1917.999,769.387c0,0,13.18-11.902,32.705-13.66c0,0-16.387-2.146-34.706,8.567
				C1915.998,764.295,1912.746,769.752,1917.999,769.387z"></path>
      </g>
    </g>
    <g>
      <g>
        <g>
          <path fill="#FAB19E" d="M1974.412,702.911c0,0,12.429-6.929,15.463,11.943c3.032,18.875-8.969,23.327-13.18,18.788
					c-4.21-4.539-7.25-7.138-4.428-17.276c0,0-6.057,6.861-11.537,2.476c-5.478-4.387-5.414-11.366-5.414-11.366
					s-4.12,7.207-7.633,6.495c-3.513-0.711-9.043-7.869-7.386-16.839c0,0-6.935,6.234-11.97-3.617
					c-5.033-9.85-1.444-9.509-1.444-9.509l-11.02-6.761c0,0,13.503-11.319,26.873,4.286c0,0,12.544-4.415,14.381,11.082
					C1957.118,692.612,1973.685,684.937,1974.412,702.911z"></path>
        </g>
      </g>
      <g>
        <path fill="#DB8F82" d="M1974.29 703.034c-.6.081-.506 3.225-1.168 6.933-.603 3.729-1.765 6.586-1.318 6.874.477.348 2.638-2.433 3.305-6.534C1975.826 706.211 1974.785 702.93 1974.29 703.034zM1957.344 692.254c-.288.061-.361.917-.533 2.257-.168 1.346-.452 3.201-.794 5.266-.684 4.131-1.244 7.541-.701 7.699.524.158 1.978-3.076 2.691-7.371.356-2.144.428-4.147.231-5.6C1958.042 693.043 1957.599 692.195 1957.344 692.254zM1942.736 681.531c-.291.099-.223 1.005-.306 2.405-.093 1.41-.382 3.347-.877 5.49-.978 4.286-2.135 7.757-1.613 7.991.484.236 2.532-2.981 3.579-7.549.528-2.272.617-4.457.334-6.015C1943.558 682.284 1942.968 681.442 1942.736 681.531z"></path>
      </g>
    </g>
    <path fill="#E06020" d="M1869.552,775.563c0,0,70.006,20.213,70.258,23.495c0.251,3.282-122.706,335.975-137.242,367.583
		c-14.536,31.609-46.599,38.848-59.587,38.856c-12.988,0.008-54.497-45.134-51.782-81.248
		C1699.831,1009.451,1869.552,775.563,1869.552,775.563z"></path>
    <path fill="#C6501C" d="M1890.834,934.192c4.435-0.641-57.395,172.676-59.29,158.549
		C1829.65,1078.614,1879.468,935.835,1890.834,934.192z"></path>
  </g>
  <g>
    <g>
      <path fill="#929ED3" d="M1224.687,911.195c8.205,12.635,17.827,24.714,30.178,30.211c1.479,0.657,6.22,2.002,0.617,0.588
			c-5.635-1.419-1.147-0.37,0.288-0.244c1.877,0.166,3.789,0.14,5.712-0.092c5.376-0.644,10.762-2.921,15.839-6.442
			c10.635-7.372,19.251-19.316,29.082-28.554c10.541-9.911,20.591-12.983,31.828-10.188c6.757,1.681,13.021,3.677,18.622,8.599
			c6.4,5.626,11.477,13.385,15.919,21.673c-1.317-2.462-7.54,0.269-8.904-2.277c-3.892-7.265-8.26-14.092-13.596-19.472
			c-2.841-2.868-5.944-5.316-9.33-7.064c-0.68-0.349-1.364-0.683-2.066-0.972c2.964,1.226,0.954,0.255-0.048,0.406
			c-1.688,0.251-3.346,0.145-5.052,0.503c-11.42,2.391-21.032,13.375-30.218,23.371c-9.584,10.425-19.73,20.341-31.53,22.443
			c-8.017,1.429-16.048-0.919-23.327-3.466c-13.647-4.773-24.138-17.781-32.913-31.297
			C1217.352,911.336,1223.076,908.711,1224.687,911.195L1224.687,911.195z"></path>
    </g>
    <g>
      <path fill="#FFD600" d="M2253.212,1816.395c11.153-0.836,22.451-2.793,30.437-8.876c0.956-0.73,3.524-3.337,0.604-0.193
			c-2.935,3.164-0.649,0.615-0.056-0.276c0.779-1.163,1.444-2.416,1.978-3.752c1.499-3.73,1.936-8.05,1.455-12.611
			c-1.008-9.555-5.713-19.427-8.222-29.123c-2.694-10.4-1.109-18.041,4.719-24.361c3.505-3.8,7.039-7.167,12.242-9.059
			c5.946-2.16,12.81-2.699,19.792-2.635c-2.073-0.021-2.516,5.006-4.658,4.986c-6.12-0.057-12.122,0.352-17.53,1.907
			c-2.881,0.828-5.582,1.976-7.927,3.557c-0.47,0.318-0.932,0.645-1.371,0.998c1.856-1.491,0.506-0.529,0.248,0.177
			c-0.438,1.188-1.099,2.23-1.475,3.468c-2.516,8.29,1.208,18.467,4.441,28.016c3.371,9.96,6.209,20.103,3.37,28.538
			c-1.929,5.73-6.324,10.122-10.578,13.954c-7.975,7.185-20.189,9.377-32.121,10.269
			C2250.687,1821.222,2251.019,1816.558,2253.212,1816.395L2253.212,1816.395z"></path>
    </g>
    <g>
      <path fill="#FFD600" d="M2357.21,913.26c4.958-10.025,9.027-20.745,7.857-30.716c-0.141-1.194-1.078-4.731,0.141-0.617
			c1.23,4.136,0.198,0.872-0.265-0.092c-0.605-1.262-1.346-2.473-2.222-3.612c-2.448-3.19-5.943-5.766-10.114-7.674
			c-8.737-3.998-19.628-4.975-29.252-7.752c-10.323-2.977-16.092-8.231-18.564-16.465c-1.486-4.951-2.586-9.706-1.564-15.149
			c1.168-6.218,4.199-12.399,7.809-18.376c-1.073,1.773,3.028,4.714,1.92,6.549c-3.165,5.238-5.868,10.612-7.284,16.059
			c-0.754,2.901-1.142,5.81-0.975,8.634c0.035,0.566,0.082,1.131,0.162,1.687c-0.339-2.356-0.198-0.706,0.278-0.123
			c0.8,0.982,1.361,2.082,2.235,3.036c5.854,6.386,16.509,8.362,26.373,10.442c10.289,2.169,20.464,4.891,26.277,11.629
			c3.949,4.579,5.492,10.597,6.624,16.209c2.124,10.523-2.208,22.151-7.515,32.875C2360.078,917.891,2356.233,915.23,2357.21,913.26
			L2357.21,913.26z"></path>
    </g>
    <g>
      <path fill="#FFD600" d="M1110.232,1878.222c17.684,19.013,44.928,27.897,70.417,22.967c0.294-0.057,2.495,5.324,2.716,5.812
			c0.209,0.455,2.394,5.901,2.595,5.863c-25.491,4.93-52.735-3.955-70.42-22.969c-1.251-1.347-1.951-4.14-2.711-5.811
			c-0.625-1.375-1.25-2.753-1.862-4.135C1110.762,1879.481,1110.566,1878.579,1110.232,1878.222L1110.232,1878.222z"></path>
    </g>
    <g>
      <path fill="#FFD600" d="M852.897,717.251c30.775,6.026,63.701-4.633,85.108-27.542c0.248-0.265,6.217,3.431,6.78,3.75
			c0.527,0.298,6.528,4.067,6.697,3.886c-21.408,22.913-54.335,33.569-85.111,27.543c-2.18-0.428-4.846-2.66-6.773-3.754
			c-1.587-0.901-3.176-1.803-4.755-2.718C854.309,718.105,853.479,717.362,852.897,717.251L852.897,717.251z"></path>
    </g>
    <g>
      <path fill="#FFD600" d="M1786.561,1266.002c17.684,19.013,44.928,27.896,70.417,22.966c0.296-0.057,2.495,5.324,2.716,5.812
			c0.209,0.456,2.394,5.902,2.596,5.864c-25.492,4.93-52.735-3.955-70.42-22.969c-1.252-1.346-1.952-4.14-2.711-5.811
			c-0.625-1.375-1.251-2.753-1.863-4.134C1787.092,1267.261,1786.896,1266.358,1786.561,1266.002L1786.561,1266.002z"></path>
    </g>
    <g>
      <path fill="#B9C1E1" d="M588.993,1307.144c12.941-21.351,33.649-34.941,53.524-35.132c0.229-0.001,1.726-5.51,1.878-6.014
			c0.145-0.471,1.626-6.037,1.783-6.039c-19.876,0.189-40.583,13.781-53.525,35.133c-0.916,1.512-1.352,4.288-1.875,6.012
			c-0.431,1.42-0.862,2.842-1.282,4.265C589.355,1305.853,589.238,1306.743,588.993,1307.144L588.993,1307.144z"></path>
    </g>
    <g>
      <path fill="#B9C1E1" d="M2357.06,452.406c-29.532-5.369-53.682-22.792-62.428-45.03c-0.1-0.257-6.929,0.427-7.56,0.472
			c-0.591,0.04-7.478,0.765-7.547,0.589c8.744,22.24,32.895,39.661,62.429,45.03c2.092,0.38,5.396-0.322,7.556-0.475
			c1.78-0.126,3.562-0.252,5.34-0.391C2355.454,452.553,2356.503,452.303,2357.06,452.406L2357.06,452.406z"></path>
    </g>
    <g>
      <path fill="#929ED3" d="M1621.187 1505.095c-.049-.002-.097.009-.146.009.295.135.566.251.809.327C1621.647 1505.305 1621.413 1505.204 1621.187 1505.095zM1613.58 1470.543c-.099-1.054-7.435-1.373-7.522-2.317 1.942 20.72 2.337 45.792-16.402 59.496-6.874 5.024-15.047 6.484-23.398 5.965-1.75-.108-3.475-.444-5.197-.756 2.947-2.115 5.599-4.609 7.795-7.339 5.243-6.505 7.003-14.431-.341-20.14-3.234-2.516-7.16-3.544-11.013-4.708-3.417-1.037-7.004-2.133-10.497-.71-8.713 3.548-9.074 17.333-4.054 23.856 2.468 3.206 6.01 5.423 9.883 7.078-4.506 3.117-9.617 5.441-14.97 6.25-4.255.641-8.743.625-13.025.262-1.634-.14-3.265-.352-4.878-.651-.233-.043-.464-.104-.697-.151-.798-.285-1.643-.527-2.312-.831-9.22-4.193-16.604-11.338-22.976-19.063-1.416-1.714-6.15-.652-7.525-2.317 7.95 9.633 17.187 17.55 29.215 21.397 1.307.416 2.607.752 3.908 1.125.352.111.704.223 1.055.334-.044-.035-.127-.047-.175-.082 7.827 2.162 15.646 3.404 23.951 2.427 5.577-.658 11.049-2.938 15.821-6.189 1.877.51 3.737.959 5.494 1.365 9.15 2.116 19.574 2.029 27.965-2.578C1615.696 1520.184 1615.612 1492.202 1613.58 1470.543zM1548.479 1522.863c-2.676-6.224-1.379-16.255 4.897-19.954 1.59-.934 3.412-1.235 5.235-1.195-.504-.235-1.053-.531-1.675-.988.528.389 1.191.672 1.821.978.127.004.252-.032.378-.023 2.307.149 1.933.872.284.36.01.004.021.008.03.015 2.694 1.69 5.254 4.161 6.267 7.25 2.081 6.333-3.063 13.038-7.291 17.156-1.262 1.229-2.638 2.371-4.065 3.454C1551.858 1528.079 1549.714 1525.732 1548.479 1522.863z"></path>
    </g>
    <g>
      <path fill="#DFE4EF" d="M763.649,1758.787c-2.235,8.246-3.568,16.914-1.939,25.4c0.194,1.005,0.867,2.302,0.785,3.288
			c-0.309-0.973-0.619-1.947-0.929-2.921c0.291,0.748,0.605,1.487,0.943,2.213c0.589,1.271,1.246,2.509,1.955,3.716
			c1.858,3.162,4.062,6.294,6.606,8.941c4.617,4.796,11.135,7.811,17.63,9.007c4.951,0.912,12.157,1.188,15.54-3.385
			c1.651-2.229,2.109-5.229,1.957-7.94c-0.043-0.781-0.327-1.638-0.313-2.405c-0.065,3.659,1.867,4.353,0.42,2.002
			c-0.898-1.453-2.122-2.697-3.696-3.404c-5.67-2.545-13.295,1.499-16.307,6.432c-1.778,2.909-2.252,6.438-1.943,9.784
			c0.054,0.582,0.133,1.167,0.231,1.744c0.054,0.291,0.11,0.582,0.164,0.873c0.65,2.538,0.493,2.18-0.468-1.069
			c1.231,2.016,1.989,4.349,3.249,6.385c3.758,6.07,8.807,11.04,15.695,13.349c18.784,6.287,36.044-6.356,49.513-17.928
			c-0.615,0.527,2.782,5.791,2.097,6.38c-14.078,12.099-33.518,25.958-52.787,16.595c-7.346-3.57-12.548-10.784-15.588-18.198
			c-2.609-6.367-5.72-14.376-3.604-21.257c2.064-6.713,11.841-13.26,18.608-8.944c2.713,1.729,3.719,4.768,4.683,7.658
			c1.091,3.256,2.31,6.497,2.155,9.99c-0.353,7.929-6.739,10.612-13.855,10.172c-7.999-0.491-16.448-4.08-21.859-10.081
			c-5.749-6.38-8.969-13.812-11.526-21.884c-3.255-10.273-2.3-20.608,0.487-30.894
			C761.069,1754.184,764.145,1756.955,763.649,1758.787L763.649,1758.787z"></path>
    </g>
    <g>
      <path fill="#DFE4EF" d="M1708.462,2063.504c-1.321-8.441-3.637-16.899-8.584-23.984c-0.586-0.839-1.73-1.748-2.057-2.682
			c0.679,0.763,1.36,1.526,2.04,2.288c-0.57-0.564-1.159-1.11-1.765-1.635c-1.055-0.921-2.159-1.783-3.299-2.597
			c-2.985-2.129-6.274-4.091-9.677-5.47c-6.172-2.497-13.353-2.594-19.77-1.038c-4.893,1.185-11.585,3.871-12.81,9.426
			c-0.598,2.708,0.206,5.635,1.45,8.047c0.358,0.695,0.967,1.362,1.267,2.068c-1.431-3.367-3.479-3.214-1.2-1.657
			c1.412,0.961,3.037,1.598,4.762,1.601c6.216,0.014,11.53-6.788,12.27-12.521c0.437-3.381-0.569-6.796-2.213-9.726
			c-0.287-0.509-0.599-1.011-0.923-1.499c-0.169-0.242-0.338-0.487-0.506-0.729c-1.628-2.053-1.339-1.791,0.863,0.785
			c-1.947-1.338-3.589-3.159-5.57-4.505c-5.906-4.012-12.542-6.492-19.773-5.791c-19.715,1.916-30.323,20.496-37.904,36.554
			c0.347-0.732-4.9-4.155-4.516-4.971c7.924-16.786,20.025-37.367,41.437-36.672c8.163,0.265,15.855,4.732,21.652,10.262
			c4.979,4.75,11.084,10.796,11.957,17.942c0.85,6.971-5.407,16.935-13.346,15.753c-3.183-0.473-5.339-2.838-7.397-5.082
			c-2.323-2.53-4.758-4.992-6.04-8.244c-2.911-7.384,1.827-12.438,8.505-14.937c7.505-2.813,16.682-2.98,24.07,0.294
			c7.851,3.481,13.821,8.956,19.447,15.285c7.159,8.053,10.5,17.88,12.148,28.408
			C1712.694,2066.656,1708.756,2065.378,1708.462,2063.504L1708.462,2063.504z"></path>
    </g>
    <g>
      <path fill="#DFE4EF" d="M656.273,426.74c-4.468,7.282-8.189,15.223-9.017,23.825c-0.097,1.018,0.183,2.452-0.173,3.376
			c-0.023-1.02-0.046-2.043-0.07-3.065c0.07,0.799,0.163,1.596,0.283,2.389c0.207,1.386,0.489,2.758,0.828,4.116
			c0.892,3.557,2.124,7.183,3.821,10.439c3.079,5.903,8.483,10.632,14.378,13.608c4.493,2.27,11.329,4.565,15.864,1.13
			c2.211-1.674,3.496-4.424,4.114-7.067c0.178-0.761,0.147-1.664,0.375-2.396c-1.093,3.492,0.565,4.703-0.161,2.04
			c-0.453-1.647-1.277-3.185-2.587-4.307c-4.723-4.04-13.179-2.307-17.46,1.577c-2.525,2.291-3.972,5.543-4.621,8.84
			c-0.112,0.575-0.2,1.158-0.269,1.738c-0.03,0.295-0.059,0.591-0.088,0.884c-0.092,2.618-0.141,2.232-0.149-1.158
			c0.614,2.281,0.684,4.733,1.319,7.041c1.896,6.883,5.34,13.075,11.299,17.23c16.251,11.324,36.375,4.056,52.558-3.253
			c-0.738,0.333,1.038,6.341,0.215,6.713c-16.916,7.642-39.474,15.464-55.324,1.051c-6.043-5.494-9.002-13.883-9.83-21.852
			c-0.712-6.843-1.439-15.405,2.529-21.411c3.872-5.859,15.097-9.388,20.375-3.34c2.116,2.424,2.225,5.623,2.337,8.667
			c0.127,3.431,0.386,6.884-0.748,10.192c-2.572,7.509-9.456,8.284-16.159,5.857c-7.537-2.726-14.633-8.548-18.134-15.831
			c-3.721-7.741-4.716-15.779-4.896-24.245c-0.229-10.773,3.599-20.421,9.171-29.506
			C655.095,421.596,657.264,425.121,656.273,426.74L656.273,426.74z"></path>
    </g>
  </g>
  <g>
    <polygon fill="#DFE4EF" points="1244.787 2256.338 1155.31 2207.384 813.476 2213.732 862.805 2256.338"></polygon>
    <polygon fill="#B9C1E1" points="1244.787 2256.338 1216.495 2617.177 889.529 2644.804 862.805 2256.338"></polygon>
    <g opacity=".5">
      <g>
        <g>
          <path fill="#929ED3" d="M920.635,2292.413c0.482,12.374-7.962,22.3-18.848,22.236c-10.879-0.063-20.177-10.082-20.778-22.439
					c-0.601-12.43,7.813-22.522,18.812-22.475C910.825,2269.781,920.15,2279.967,920.635,2292.413z"></path>
        </g>
        <g>
          <path fill="#929ED3" d="M992.766,2256.285c-0.718,11.481-9.089,20.326-19.373,20.207c-10.161,0-19.008-8.846-20.326-20.207
					H992.766z"></path>
        </g>
        <g>
          <path fill="#929ED3" d="M1067.245,2293.164c0.043,12.437-8.846,22.409-19.845,22.346c-10.992-0.067-20.031-10.131-20.197-22.552
					c-0.166-12.493,8.7-22.639,19.814-22.592C1058.14,2270.413,1067.198,2280.651,1067.245,2293.164z"></path>
        </g>
        <g>
          <path fill="#929ED3" d="M1141.392,2256.285c-0.837,11.72-9.683,20.928-20.206,20.928c-10.524-0.12-19.134-9.208-19.968-20.928
					H1141.392z"></path>
        </g>
        <g opacity=".5">
          <path fill="#929ED3" d="M1215.399,2293.922c-0.402,12.5-9.743,22.522-20.861,22.456c-11.109-0.063-19.881-10.181-19.602-22.665
					c0.282-12.556,9.609-22.755,20.837-22.705C1207.015,2271.054,1215.803,2281.345,1215.399,2293.922z"></path>
        </g>
        <g>
          <path fill="#929ED3" d="M923.585,2368.088c0.465,11.929-7.833,21.473-18.526,21.38c-10.68-0.093-19.802-9.773-20.379-21.682
					c-0.582-11.982,7.69-21.685,18.486-21.609C913.972,2346.254,923.116,2356.094,923.585,2368.088z"></path>
        </g>
        <g opacity=".5">
          <path fill="#929ED3" d="M994.566,2333.604c0.259,12.178-8.328,21.934-19.174,21.854c-10.836-0.08-19.918-9.949-20.293-22.11
					c-0.379-12.231,8.185-22.154,19.137-22.09C985.198,2311.322,994.303,2321.357,994.566,2333.604z"></path>
        </g>
        <g>
          <path fill="#929ED3" d="M1067.517,2369.215c0.047,11.985-8.682,21.572-19.482,21.479c-10.792-0.093-19.665-9.82-19.825-21.789
					c-0.159-12.038,8.547-21.788,19.456-21.711C1058.585,2347.271,1067.474,2357.159,1067.517,2369.215z"></path>
        </g>
        <g>
          <path fill="#929ED3" d="M1140.581,2332.017c-0.176,12.234-9.205,22.037-20.16,21.961c-10.949-0.08-19.775-9.999-19.719-22.22
					c0.057-12.294,9.066-22.263,20.134-22.203C1131.911,2309.617,1140.754,2319.702,1140.581,2332.017z"></path>
        </g>
        <g opacity=".5">
          <path fill="#929ED3" d="M1212.941,2372.885c-0.389,12.045-9.551,21.678-20.463,21.585c-10.906-0.093-19.522-9.869-19.254-21.894
					c0.272-12.102,9.424-21.898,20.446-21.822C1204.7,2350.835,1213.33,2360.771,1212.941,2372.885z"></path>
        </g>
        <g opacity=".5">
          <path fill="#929ED3" d="M926.429,2441.049c0.448,11.503-7.707,20.686-18.21,20.569c-10.494-0.116-19.446-9.478-20.005-20.968
					c-0.558-11.553,7.574-20.887,18.177-20.784C917.001,2419.969,925.98,2429.479,926.429,2441.049z"></path>
        </g>
        <g opacity=".5">
          <path fill="#929ED3" d="M996.154,2408.083c0.253,11.742-8.185,21.124-18.835,21.017c-10.64-0.103-19.557-9.644-19.918-21.369
					c-0.365-11.793,8.049-21.333,18.805-21.244C986.966,2386.577,995.902,2396.274,996.154,2408.083z"></path>
        </g>
        <g>
          <path fill="#929ED3" d="M1067.783,2442.524c0.043,11.557-8.53,20.782-19.137,20.662c-10.599-0.119-19.309-9.524-19.463-21.063
					c-0.152-11.613,8.399-20.987,19.108-20.885C1059.01,2421.341,1067.743,2430.898,1067.783,2442.524z"></path>
        </g>
        <g>
          <path fill="#929ED3" d="M1139.515,2406.858c-0.169,11.795-9.028,21.223-19.788,21.117c-10.75-0.106-19.416-9.693-19.363-21.472
					c0.056-11.853,8.899-21.436,19.766-21.346C1131.001,2385.249,1139.684,2394.992,1139.515,2406.858z"></path>
        </g>
        <g>
          <path fill="#929ED3" d="M1210.572,2444.012c-0.372,11.61-9.367,20.878-20.081,20.758c-10.705-0.12-19.173-9.57-18.91-21.167
					c0.259-11.662,9.238-21.083,20.06-20.98C1202.471,2422.729,1210.948,2432.333,1210.572,2444.012z"></path>
        </g>
        <g>
          <path fill="#929ED3" d="M929.176,2511.439c0.431,11.102-7.591,19.941-17.909,19.802c-10.311-0.139-19.101-9.198-19.639-20.287
					c-0.542-11.151,7.458-20.137,17.871-20.007C919.927,2491.073,928.737,2500.274,929.176,2511.439z"></path>
        </g>
        <g>
          <path fill="#929ED3" d="M997.689,2477.374c0.242,11.328-8.053,20.356-18.513,20.227c-10.454-0.13-19.204-9.358-19.553-20.672
					c-0.351-11.377,7.917-20.552,18.48-20.436C988.673,2456.606,997.446,2465.983,997.689,2477.374z"></path>
        </g>
        <g>
          <path fill="#929ED3" d="M1068.039,2513.236c0.04,11.151-8.381,20.031-18.802,19.888c-10.414-0.143-18.968-9.242-19.118-20.38
					c-0.149-11.201,8.255-20.227,18.775-20.097C1059.425,2492.777,1067.999,2502.022,1068.039,2513.236z"></path>
        </g>
        <g opacity=".5">
          <path fill="#929ED3" d="M1138.488,2481.556c-0.163,11.377-8.862,20.449-19.429,20.316c-10.56-0.133-19.07-9.404-19.017-20.765
					c0.05-11.43,8.736-20.652,19.402-20.532C1130.12,2460.692,1138.651,2470.112,1138.488,2481.556z"></path>
        </g>
        <g>
          <path fill="#929ED3" d="M1208.287,2515.05c-0.358,11.201-9.188,20.12-19.712,19.978c-10.517-0.143-18.835-9.285-18.582-20.472
					c0.249-11.255,9.066-20.32,19.692-20.187C1200.318,2494.497,1208.653,2503.782,1208.287,2515.05z"></path>
        </g>
        <g>
          <path fill="#929ED3" d="M931.823,2579.394c0.418,10.719-7.471,19.237-17.616,19.074c-10.135-0.163-18.765-8.932-19.283-19.641
					c-0.522-10.77,7.344-19.423,17.583-19.274C922.751,2559.706,931.402,2568.612,931.823,2579.394z"></path>
        </g>
        <g opacity=".5">
          <path fill="#929ED3" d="M999.167,2546.684c0.232,10.936-7.916,19.629-18.197,19.476c-10.271-0.153-18.864-9.085-19.203-20.004
					c-0.342-10.982,7.789-19.819,18.167-19.679C990.317,2526.616,998.931,2535.688,999.167,2546.684z"></path>
        </g>
        <g>
          <path fill="#929ED3" d="M1068.284,2581.49c0.04,10.766-8.238,19.316-18.476,19.154c-10.235-0.166-18.642-8.972-18.782-19.728
					c-0.146-10.816,8.112-19.506,18.449-19.353C1059.82,2561.715,1068.245,2570.661,1068.284,2581.49z"></path>
        </g>
        <g>
          <path fill="#929ED3" d="M1137.499,2548.644c-0.157,10.982-8.703,19.712-19.084,19.559c-10.374-0.153-18.739-9.125-18.689-20.094
					c0.05-11.031,8.58-19.904,19.061-19.765C1129.274,2528.487,1137.654,2537.599,1137.499,2548.644z"></path>
        </g>
        <g>
          <path fill="#929ED3" d="M1206.085,2583.606c-0.349,10.813-9.019,19.403-19.36,19.237c-10.331-0.166-18.509-9.013-18.267-19.815
					c0.242-10.863,8.899-19.592,19.34-19.44C1198.245,2563.745,1206.433,2572.73,1206.085,2583.606z"></path>
        </g>
        <g>
          <path fill="#929ED3" d="M933.817,2641.068l-35.753,2.986c-0.356-10.282,7.413-18.413,17.339-18.294
					C924.133,2625.999,931.664,2632.577,933.817,2641.068z"></path>
        </g>
        <g>
          <path fill="#929ED3" d="M1000.595,2613.609c0.226,10.56-7.789,18.938-17.895,18.765c-10.095-0.173-18.539-8.823-18.865-19.374
					c-0.329-10.606,7.663-19.117,17.865-18.954C991.905,2594.206,1000.369,2602.989,1000.595,2613.609z"></path>
        </g>
        <g>
          <path fill="#929ED3" d="M1136.492,2615.838c0,2.99-0.721,5.74-2.033,8.248l-31.329,2.631c-2.392-3.11-3.707-7.176-3.707-11.48
					c0-10.64,8.487-19.25,18.772-19.011C1128.48,2596.346,1136.731,2605.195,1136.492,2615.838z"></path>
        </g>
      </g>
    </g>
    <polygon fill="#929ED3" points="889.529 2644.804 838.606 2600.646 813.476 2213.732 862.805 2256.338"></polygon>
    <polygon fill="#E4C012" points="869.849 2627.739 845.894 2241.729 1213.625 2239.261 1174.151 2217.768 824.129 2222.934 853.331 2615.12"></polygon>
    <polygon fill="#FFD600" points="1106.662 2626.455 1124.191 2256.338 1042.484 2209.48 960.079 2211.011 1008.239 2257.085 1025.758 2633.294"></polygon>
    <path fill="#E4C012" d="M1124.145,2256.372l-17.456,370.073l-80.95,6.816l-1.076-23.435c21.405-1.674,55.72-5.505,63.015-13.753
		c10.759-12.078,25.946-312.439,20.685-318.777c-5.501-6.216-95.536-18.294-95.536-18.294h93.623c0,0-9.802-8.607-14.35-7.654
		c-3.105,0.601-58.946-1.192-92.307-2.388l-39.696-37.906l82.385-1.554L1124.145,2256.372z"></path>
    <g>
      <path fill="#FFD600" d="M874.01,2213.397c0.253,2.986,2.216,6.192,5.565,9.125c0.103-0.006,0.106,0.093,0.206,0.089
			c11.729,10.315,39.466,18.619,73.266,14.211c22.761-3.05,39.746-7.51,50.675-11.065l-0.007-0.096
			c0.296-0.116,0.591-0.232,0.89-0.246c9.743-3.195,14.523-5.637,14.523-5.637s-12.311-37.706-30.109-63.221l-0.107-0.096
			c-10.032-14.404-21.874-25.013-34.161-22.588C920.562,2140.499,872.635,2199.957,874.01,2213.397z M1003.077,2212.985
			c-0.491,0.226-0.681,0.432-0.976,0.545c-0.292,0.116-0.688,0.239-1.076,0.458c-0.396,0.12-0.781,0.339-1.176,0.458
			c-21.084,8.571-72.662,7.67-79.615,4.72c-5.624-2.415-1.086-9.65,7.318-15.58l0.096-0.103c2.319-1.618,4.843-3.149,7.577-4.488
			c12.799-6.149,6.999-25.871,17.665-34.614c6.334-5.321,23.08,13.145,35.477,28.831c0.11,0.193,0.222,0.388,0.222,0.388
			c2.671,3.365,5.136,6.644,7.279,9.438c1.508,2.126,2.903,3.956,3.976,5.405C1001.346,2210.47,1003.077,2212.985,1003.077,2212.985
			z"></path>
      <path fill="#C9A923" d="M999.844 2208.444c1.501 2.026 3.232 4.541 3.232 4.541-.491.226-.681.432-.976.545-.193.113-.485.229-1.076.458l1.807 8.012.103.096.781 3.564c.296-.116.591-.232.89-.246 9.743-3.195 14.523-5.637 14.523-5.637s-12.311-37.706-30.109-63.221l-.107-.096L999.844 2208.444zM927.648 2203.484c2.319-1.618 4.843-3.149 7.577-4.488 12.799-6.149 6.999-25.871 17.665-34.614 6.334-5.321 23.08 13.145 35.477 28.831-2.113-4.199-19.496-37.341-30.91-37.467-12.321-.279-14.912 17.765-18.576 30.458C935.225 2198.997 930.056 2201.661 927.648 2203.484z"></path>
      <path fill="#F1E0D2" d="M879.78,2222.611c11.729,10.315,39.466,18.619,73.266,14.211
			c22.761-3.05,39.746-7.51,50.675-11.065l-0.007-0.096c0.296-0.116,0.591-0.232,0.89-0.246l-1.671-3.318l-0.103-0.096
			c0,0-30.419,11.946-52.908,12.48C927.438,2235.012,895.884,2230.405,879.78,2222.611z" opacity=".47"></path>
    </g>
    <g>
      <path fill="#FFD600" d="M1009.787,2228.957c0,0,0.1-0.007,0.402,0.076c52.644,12.054,122.064,3.644,147.749-14.862
			c1.931-1.398,3.658-2.886,5.082-4.362c20.128-21.529,1.007-90.706-115.387-105.246
			C954.419,2092.92,1009.787,2228.957,1009.787,2228.957z M1018.915,2215.586c0,0-7.753-92.168,17.772-89.956
			c25.631,2.209,98.333,38.965,97.426,64.627c-0.09,2.206-0.99,4.152-2.601,5.933c-15.885,18.316-100.386,19.38-111.395,19.436
			C1019.316,2215.566,1018.915,2215.586,1018.915,2215.586z"></path>
      <path fill="#C9A923" d="M1010.189 2229.033c52.644 12.054 122.064 3.644 147.749-14.862C1104.573 2235.377 1016.819 2229.501 1010.189 2229.033zM1018.915 2215.586c0 0-7.753-92.168 17.772-89.956 25.631 2.209 98.333 38.965 97.426 64.627 6.458-32.647-76.429-74.895-105.126-70.543C1000.393 2124.158 1018.915 2215.586 1018.915 2215.586z"></path>
    </g>
  </g>
  <g>
    <g>
      <path fill="#DFE4EF" d="M2144.685,2340.928c75.324-136.325,63.392-394.887,103.676-355.261c40.283,39.626,42.46,56.74,42.46,56.74
			s39.279-202.938,101.175-172.515c61.894,30.412,20.445,160.55,20.445,160.55s55.719-35.864,73.723-4.392
			c18.004,31.472-135.441,96.085-135.441,96.085s60.57,32.114,8.265,75.49c-27.074,22.451-81.507,21.915-81.507,21.915
			L2144.685,2340.928z"></path>
      <path fill="#B9C1E1" d="M2383.56,2075.714l-57.764,19.131c6.706-17.406,11.828-35.212,14.817-53.326
			c-3.436,11.479-6.47,22.926-11.237,33.897c-2.972,7.241-6.198,14.351-9.547,21.401l-0.221,0.072l0.083,0.21
			c-6.138,12.899-12.85,25.5-20.081,37.831l-36.412-34.958l32.854,40.941c-30.251,50.172-68.347,96.025-106.327,140.126
			c30.975-29.185,62.426-63.116,88.815-100.317l61.265-27.65l-54.574,18.076c14.589-21.634,27.252-44.328,37.084-67.801
			L2383.56,2075.714z"></path>
    </g>
    <g>
      <path fill="#DFE4EF" d="M1539.222,2122.186c-64.827-88.187-79.918-269.457-104.406-238.195
			c-24.48,31.262-24.453,43.386-24.453,43.386s-45.745-137.871-86.119-111.069c-40.381,26.8,0.286,113.735,0.286,113.735
			s-42.074-19.945-51.778,3.617c-9.697,23.557,103.086,54.702,103.086,54.702s-39.306,27.861,1.075,53.356
			c20.905,13.193,58.783,7.888,58.783,7.888L1539.222,2122.186z"></path>
      <path fill="#B9C1E1" d="M1348.751,1958.978l41.986,8.106c-6.248-11.519-11.425-23.468-15.151-35.823
			c3.433,7.691,6.582,15.396,10.9,22.604c2.721,4.78,5.619,9.446,8.589,14.056l0.158,0.035l-0.035,0.149
			c5.44,8.426,11.262,16.606,17.416,24.542l22.21-27.657l-19.189,31.506c25.63,32.226,56.326,60.726,86.785,88.029
			c-24.229-17.538-49.215-38.333-70.976-61.876l-45.202-13.717l39.673,7.65c-12.125-13.75-23.005-28.418-31.982-43.889
			L1348.751,1958.978z"></path>
    </g>
    <path fill="#B9C1E1" d="M1538.4 1915.753c-15.841-6.621-47.885-68.034-36.639-68.394 11.245-.364 28.295 16.907 28.295 16.907s-11.606-68.057 4.355-60.801c15.962 7.254 25.031 38.452 25.031 38.452s10.405-14.149 18.442-2.176C1585.921 1851.711 1549.281 1920.3 1538.4 1915.753zM2335.135 2286.059c-3.665-3.156 75.696-68.849 88.67-49.563 12.982 19.281-24.51 30.682-21.625 32.909 2.879 2.233 69.93 2.956 60.557 16.654S2356.038 2304.082 2335.135 2286.059zM1382.451 2152.513c-1.632 5.305-79.006-.688-63.624-23.164 7.555-11.039 24.735-4.231 24.735-4.231s-23.425-20.752-15.243-20.9c8.184-.15 37.438 13.931 37.438 13.931s1.581-8.726 8.149-7.86C1380.469 2111.155 1384.94 2144.429 1382.451 2152.513z"></path>
  </g>
</svg>
